<svg id="Слой_1" data-name="Слой 1" xmlns="http://www.w3.org/2000/svg" viewBox="0 0 29.02 20.51"><defs><style>.cls-1{fill:#fdda0e;}</style></defs><title>icon</title><path class="cls-1" d="M28.61,9.87,27.2,9.44a.52.52,0,0,0-.53.14,11.63,11.63,0,0,1-1.12,1.1,12,12,0,0,1-10.76,2.48c-4.06-.88-5.92-3.23-8.5-6.47-.18-.24-.37-.47-.56-.71l-.08-.1a2,2,0,0,0-.29-.35,4.06,4.06,0,0,0-.55-.46,1.87,1.87,0,0,1-.74-1.25L3.64.5A.54.54,0,0,0,3.43.13.52.52,0,0,0,3,0L.9.19A.52.52,0,0,0,.44.78L.86,4a1.25,1.25,0,0,1-.31,1A2.1,2.1,0,0,0,0,6.41c.17,7,4.83,12.09,12.46,13.76A15.19,15.19,0,0,0,22.33,19a14.3,14.3,0,0,0,1.75-1,13,13,0,0,0,2.08-1.74,10.6,10.6,0,0,0,2.39-3.85A11.79,11.79,0,0,0,29,10.51.57.57,0,0,0,28.61,9.87Zm-27-8.64,1.08-.1.29,2.21H1.85ZM23.47,17A14.24,14.24,0,0,1,12.64,19.1C5.55,17.55,1.22,12.82,1.07,6.43a1.08,1.08,0,0,1,.28-.74,2.32,2.32,0,0,0,.57-1.24l1.21,0A2.88,2.88,0,0,0,4.23,6a2.3,2.3,0,0,1,.41.35,1.06,1.06,0,0,1,.16.19l.11.15c.19.24.38.47.56.71,2.62,3.3,4.7,5.91,9.14,6.88a14.2,14.2,0,0,0,6.39,0,12.68,12.68,0,0,0,5-2.49l0,0,.19.1a10.32,10.32,0,0,1-2.89,3,11.64,11.64,0,0,1-9.08,1.57C9,15.25,5.33,12.45,3.8,8.5a.55.55,0,0,0-.69-.34.53.53,0,0,0-.3.69c1.67,4.33,5.67,7.39,11.27,8.61a13.07,13.07,0,0,0,7.83-.63A11.86,11.86,0,0,0,24,15.72a11.27,11.27,0,0,0,3.25-3.38l.15.07A10.44,10.44,0,0,1,23.47,17Zm4.24-5.63-.22-.11L26.86,11l.39-.4.61.18C27.82,11,27.77,11.19,27.71,11.4Z"/></svg>